<svg width="16" height="16" viewBox="0 0 16 16" fill="none" xmlns="http://www.w3.org/2000/svg">
<path d="M8.66694 7.99992C8.66694 8.36811 8.36846 8.66658 8.00027 8.66658C7.63208 8.66658 7.3336 8.36811 7.3336 7.99992C7.3336 7.63173 7.63208 7.33325 8.00027 7.33325C8.36846 7.33325 8.66694 7.63173 8.66694 7.99992ZM13.4669 13.4668C14.8269 12.1135 13.4802 8.56017 10.4669 5.5335C7.44019 2.52017 3.88686 1.1735 2.53353 2.5335C1.17353 3.88683 2.52019 7.44017 5.53353 10.4668C8.56019 13.4802 12.1135 14.8268 13.4669 13.4668ZM10.4669 10.4668C13.4802 7.44017 14.8269 3.88683 13.4669 2.5335C12.1135 1.1735 8.56019 2.52017 5.53353 5.5335C2.52019 8.56017 1.17353 12.1135 2.53353 13.4668C3.88686 14.8268 7.44019 13.4802 10.4669 10.4668Z" stroke="#4A4843" stroke-width="2" stroke-linecap="round"/>
</svg>
