<svg preserveAspectRatio="none" overflow="visible" style="display: block;" width="22" height="22" viewBox="0 0 22 22" fill="none" xmlns="http://www.w3.org/2000/svg">
<g id="fingerprint-pattern" clip-path="url(#clip0_0_12)">
<path id="Vector" d="M11.0004 9.16648C10.5141 9.16648 10.0477 9.35965 9.70389 9.70349C9.36004 10.0473 9.16687 10.5137 9.16687 10.9999C9.16687 11.935 9.07519 13.301 8.92851 14.6669M12.8337 12.0268C12.8337 14.2086 12.8337 17.8756 11.9169 20.1674M15.8498 19.2689C15.9599 18.7189 16.244 17.1604 16.3082 16.5004M1.8326 10.9999C1.8326 9.07588 2.438 7.20059 3.56305 5.6397C4.6881 4.07882 6.27575 2.91148 8.10113 2.30304C9.9265 1.6946 11.897 1.6759 13.7336 2.24959C15.5702 2.82328 17.1797 3.96029 18.3342 5.49954M1.8326 14.6669H1.84177M19.9842 14.6669C20.1675 12.8334 20.1043 9.75869 19.9842 9.16648M4.58287 17.8755C5.04125 16.5004 5.49963 13.7502 5.49963 10.9999C5.4987 10.3755 5.6041 9.75551 5.81132 9.16648M7.92939 20.1673C8.12191 19.5622 8.34193 18.9572 8.45194 18.3338M8.24989 6.23287C9.08634 5.74996 10.0352 5.4958 11.001 5.49596C11.9669 5.49611 12.9157 5.75058 13.752 6.23375C14.5883 6.71693 15.2826 7.41179 15.7651 8.24845C16.2476 9.08511 16.5013 10.0341 16.5007 10.9999V12.8334" stroke="#1A1A18" stroke-width="2" stroke-linecap="round"/>
</g>
<defs>
<clipPath id="clip0_0_12">
<rect width="22" height="22" fill="white"/>
</clipPath>
</defs>
</svg>
