<svg preserveAspectRatio="none" overflow="visible" style="display: block;" width="22" height="22" viewBox="0 0 22 22" fill="none" xmlns="http://www.w3.org/2000/svg">
<g id="utensils-crossed" clip-path="url(#clip0_0_65)">
<path id="Vector" d="M14.6675 1.8326L12.5592 3.94112C12.0554 4.45522 11.7732 5.14641 11.7732 5.8663C11.7732 6.58618 12.0554 7.27737 12.5592 7.79147L14.2092 9.44162C14.7233 9.94554 15.4144 10.2278 16.1342 10.2278C16.854 10.2278 17.5451 9.94554 18.0591 9.44162L20.1674 7.33309M13.7503 13.7502L3.02553 3.02419C2.65968 3.38269 2.36904 3.8106 2.17062 4.28285C1.9722 4.7551 1.87 5.26219 1.87 5.77444C1.87 6.28669 1.9722 6.79379 2.17062 7.26604C2.36904 7.73829 2.65968 8.16619 3.02553 8.52469L9.71704 15.217C10.3587 15.8587 11.5503 15.8587 12.2836 15.217L13.7503 13.7502ZM13.7503 13.7502L20.1668 20.1674M1.9255 19.9842L7.79202 14.2087M17.4171 4.58285L11.0006 11.0001" stroke="#4A4843" stroke-width="2" stroke-linecap="round"/>
</g>
<defs>
<clipPath id="clip0_0_65">
<rect width="22" height="22" fill="white"/>
</clipPath>
</defs>
</svg>
